<svg version="1.1" id="_x32_" xmlns="http://www.w3.org/2000/svg" viewBox="0 0 512 512" xml:space="preserve" fill="#000"><g id="SVGRepo_iconCarrier"><style>path{fill:#000}@media (prefers-color-scheme:dark){path{fill:#fff}}</style><path class="st0" d="m154.219 205.188 12 129.843-55.297 70.532-14.516-109zM357.781 205.188l-12.015 129.843 55.297 70.532 14.531-109zM323.813 62.219C305.125 23.328 275.656 0 256 0s-49.125 23.344-67.813 62.219h135.626zM331.328 80.469H180.672c-6.641 19.156-10.594 41.094-10.047 65.188 1.609 69.063 18.047 190.984 18.047 190.984l122.641-.016 12 .016s16.453-121.938 18.031-190.984c.578-24.094-3.375-46.048-10.016-65.188zM256 231.031c-23.578 0-42.688-19.094-42.688-42.672s19.125-42.672 42.688-42.672 42.672 19.094 42.656 42.672c.016 23.579-19.093 42.672-42.656 42.672zM429.516 512c-6.109-17.594-22.859-30.219-42.531-30.219a44.962 44.962 0 0 0-17.766 3.625c-1.875-20.578-19.188-36.688-40.25-36.688-3.047 0-6 .328-8.844.969.031-.563.031-1.125.031-1.688 0-15.531-12.594-28.125-28.125-28.125-4.031 0-7.875.844-11.344 2.375-9.734-17.219-12.563-62.156-12.563-62.156h-25.5s-3.266 49.344-14.813 65.688a23.206 23.206 0 0 0-8.75-1.688c-13.016 0-23.563 10.547-23.563 23.563 0 .984.063 1.953.188 2.906-3.719-1.203-3.281-1.844-7.406-1.844-16.484 0-30.531 10.406-35.938 25a50.955 50.955 0 0 0-19.625-3.906c-25.156 0-46.063 18.219-50.234 42.188h347.033z"/></g></svg>